<?xml version="1.0" encoding="UTF-8" standalone="no"?>
<svg
   xmlns:dc="http://purl.org/dc/elements/1.1/"
   xmlns:cc="http://creativecommons.org/ns#"
   xmlns:rdf="http://www.w3.org/1999/02/22-rdf-syntax-ns#"
   xmlns:svg="http://www.w3.org/2000/svg"
   xmlns="http://www.w3.org/2000/svg"
   xmlns:sodipodi="http://sodipodi.sourceforge.net/DTD/sodipodi-0.dtd"
   xmlns:inkscape="http://www.inkscape.org/namespaces/inkscape"
   inkscape:version="1.0 (4035a4f, 2020-05-01)"
   sodipodi:docname="plate SM.svg"
   id="svg901"
   version="1.1"
   viewBox="0 0 74.93 53.34"
   height="53.34mm"
   width="74.93mm">
  <metadata
     id="metadata907">
    <rdf:RDF>
      <cc:Work
         rdf:about="">
        <dc:format>image/svg+xml</dc:format>
        <dc:type
           rdf:resource="http://purl.org/dc/dcmitype/StillImage" />
        <dc:title></dc:title>
      </cc:Work>
    </rdf:RDF>
  </metadata>
  <defs
     id="defs905" />
  <sodipodi:namedview
     inkscape:current-layer="g1067"
     inkscape:window-maximized="0"
     inkscape:window-y="153"
     inkscape:window-x="347"
     inkscape:cy="117.8"
     inkscape:cx="64.6"
     inkscape:zoom="1"
     showgrid="false"
     id="namedview903"
     inkscape:window-height="1140"
     inkscape:window-width="1648"
     inkscape:pageshadow="2"
     inkscape:pageopacity="0"
     guidetolerance="10"
     gridtolerance="10"
     objecttolerance="10"
     borderopacity="1"
     inkscape:document-rotation="0"
     bordercolor="#666666"
     pagecolor="#ffffff" />
  <g
     style="font-variation-settings:normal;opacity:1;vector-effect:none;fill:none;fill-opacity:1;stroke:#03047b;stroke-width:0.1;stroke-linecap:butt;stroke-linejoin:miter;stroke-miterlimit:4;stroke-dasharray:none;stroke-dashoffset:0;stroke-opacity:1;stop-color:#000000;stop-opacity:1"
     transform="translate(0.05,0.05)"
     id="g1067">
    <path
       style="font-variation-settings:normal;vector-effect:none;fill:none;fill-opacity:1;stroke:#03047b;stroke-width:0.1;stroke-linecap:butt;stroke-linejoin:miter;stroke-miterlimit:4;stroke-dasharray:none;stroke-dashoffset:0;stroke-opacity:1;stop-color:#000000;stop-opacity:1"
       d="m 73.095574,51.855966 0.192452,-0.15794 0.15794,-0.192452 0.117361,-0.219566 0.07227,-0.238243 L 73.66,50.8 73.6356,50.552235 73.56333,50.313992 73.445969,50.094426 73.288029,49.901974 73.095577,49.744034 72.876011,49.626673 72.637768,49.554403 72.39,49.53 l -0.247765,0.0244 -0.238243,0.07227 -0.219566,0.117361 -0.192452,0.15794 -0.15794,0.192452 -0.117361,0.219566 -0.07227,0.238243 L 71.12,50.8 l 0.0244,0.247765 0.07227,0.238243 0.117361,0.219566 0.15794,0.192452 0.192452,0.15794 0.219566,0.117361 0.238243,0.07227 0.247765,0.0244 0.247765,-0.0244 0.238243,-0.07227 0.219566,-0.117361"
       id="path1055" />
    <path
       style="font-variation-settings:normal;vector-effect:none;fill:none;fill-opacity:1;stroke:#03047b;stroke-width:0.1;stroke-linecap:butt;stroke-linejoin:miter;stroke-miterlimit:4;stroke-dasharray:none;stroke-dashoffset:0;stroke-opacity:1;stop-color:#000000;stop-opacity:1"
       d="M 3.2455742,51.855966 3.4380256,51.698026 3.5959664,51.505574 3.713327,51.286008 3.7855973,51.047765 3.81,50.8 3.7855973,50.552235 3.713327,50.313992 3.5959664,50.094426 3.4380256,49.901974 3.2455742,49.744034 3.026008,49.626673 2.7877647,49.554403 2.54,49.53 2.2922353,49.554403 2.053992,49.626673 1.8344258,49.744034 1.6419744,49.901974 1.4840336,50.094426 1.366673,50.313992 1.2944027,50.552235 1.27,50.8 l 0.024403,0.247765 0.07227,0.238243 0.1173606,0.219566 0.1579408,0.192452 0.1924514,0.15794 0.2195662,0.117361 0.2382433,0.07227 L 2.54,52.07 2.7877647,52.0456 3.026008,51.97333 3.2455742,51.855969"
       id="path1057" />
    <path
       style="font-variation-settings:normal;vector-effect:none;fill:none;fill-opacity:1;stroke:#03047b;stroke-width:0.1;stroke-linecap:butt;stroke-linejoin:miter;stroke-miterlimit:4;stroke-dasharray:none;stroke-dashoffset:0;stroke-opacity:1;stop-color:#000000;stop-opacity:1"
       d="M 2.0444706,53.291195 1.5679841,53.146654 1.1288516,52.911933 0.74394878,52.596051 0.42806718,52.211148 0.19334599,51.772016 0.04880539,51.295529 0,50.8 V 2.54 L 0.04880539,2.0444706 0.19334599,1.5679841 0.42806718,1.1288516 0.74394878,0.74394878 1.1288516,0.42806718 1.5679841,0.19334599 2.0444706,0.04880539 2.54,0 h 69.85 l 0.495529,0.04880539 0.476487,0.1445406 0.439132,0.23472119 0.384903,0.3158816 0.315882,0.38490282 0.234721,0.4391325 0.144541,0.4764865 L 74.93,2.54 V 50.8 l -0.04881,0.495529 -0.144541,0.476487 -0.234721,0.439132 -0.315882,0.384903 -0.384903,0.315882 -0.439132,0.234721 -0.476487,0.144541 L 72.39,53.34 H 2.54 L 2.0444706,53.29119"
       id="path1059" />
    <path
       style="font-variation-settings:normal;vector-effect:none;fill:none;fill-opacity:1;stroke:#03047b;stroke-width:0.1;stroke-linecap:butt;stroke-linejoin:miter;stroke-miterlimit:4;stroke-dasharray:none;stroke-dashoffset:0;stroke-opacity:1;stop-color:#000000;stop-opacity:1"
       d="M 72.39,1.27 72.142235,1.294403 71.903992,1.366673 71.684426,1.4840336 71.491974,1.6419744 71.334034,1.8344258 71.216673,2.053992 71.144403,2.2922353 71.12,2.54 l 0.0244,0.2477647 0.07227,0.2382433 0.117361,0.2195662 0.15794,0.1924514 0.192452,0.1579408 0.219566,0.1173606 0.238243,0.07227 L 72.39,3.81 72.637765,3.7855973 72.876008,3.713327 73.095574,3.5959664 73.288026,3.4380256 73.445966,3.2455742 73.563327,3.026008 73.635597,2.7877647 73.66,2.54 73.635597,2.2922353 73.563327,2.053992 73.445966,1.8344258 73.288026,1.6419744 73.095574,1.4840336 72.876008,1.366673 72.637765,1.2944027 72.39,1.27"
       id="path1061" />
    <path
       style="font-variation-settings:normal;vector-effect:none;fill:none;fill-opacity:1;stroke:#03047b;stroke-width:0.1;stroke-linecap:butt;stroke-linejoin:miter;stroke-miterlimit:4;stroke-dasharray:none;stroke-dashoffset:0;stroke-opacity:1;stop-color:#000000;stop-opacity:1"
       d="M 2.54,1.27 2.2922353,1.2944027 2.053992,1.366673 1.8344258,1.4840336 1.6419744,1.6419744 1.4840336,1.8344258 1.366673,2.053992 1.2944027,2.2922353 1.27,2.54 1.2944027,2.7877647 1.366673,3.026008 1.4840336,3.2455742 1.6419744,3.4380256 1.8344258,3.5959664 2.053992,3.713327 2.2922353,3.7855973 2.54,3.81 2.7877647,3.7855973 3.026008,3.713327 3.2455742,3.5959664 3.4380256,3.4380256 3.5959664,3.2455742 3.713327,3.026008 3.7855973,2.7877647 3.81,2.54 3.7855973,2.2922353 3.713327,2.053992 3.5959664,1.8344258 3.4380256,1.6419744 3.2455742,1.4840336 3.026008,1.366673 2.7877647,1.2944027 2.54,1.27"
       id="path1063" />
    <path
       style="font-variation-settings:normal;vector-effect:none;fill:none;fill-opacity:1;stroke:#03047b;stroke-width:0.1;stroke-linecap:butt;stroke-linejoin:miter;stroke-miterlimit:4;stroke-dasharray:none;stroke-dashoffset:0;stroke-opacity:1;stop-color:#000000;stop-opacity:1"
       d="m 39.3319,38.5704 -0.780361,0.07686 -0.750373,0.227623 -0.691547,0.36964 -0.606146,0.497451 -0.497451,0.606146 -0.36964,0.691547 -0.227623,0.750373 -0.07686,0.780361 0.07686,0.780361 0.227623,0.750373 0.36964,0.691547 0.497451,0.606146 0.606146,0.497451 0.691547,0.36964 0.750373,0.227623 0.780361,0.07686 0.780361,-0.07686 0.750373,-0.227623 0.691547,-0.36964 0.606146,-0.497451 0.497451,-0.606146 0.36964,-0.691547 0.227623,-0.750373 0.07686,-0.780361 -0.07686,-0.780361 -0.227623,-0.750373 -0.36964,-0.691547 -0.497451,-0.606146 -0.606146,-0.497451 -0.691547,-0.36964 L 40.112261,38.647259 39.3319,38.5704"
       id="path1065" />
  </g>
</svg>
